<?xml version="1.0" encoding="UTF-8" standalone="no"?>
<svg
   xmlns:dc="http://purl.org/dc/elements/1.1/"
   xmlns:cc="http://creativecommons.org/ns#"
   xmlns:rdf="http://www.w3.org/1999/02/22-rdf-syntax-ns#"
   xmlns:svg="http://www.w3.org/2000/svg"
   xmlns="http://www.w3.org/2000/svg"
   xmlns:sodipodi="http://sodipodi.sourceforge.net/DTD/sodipodi-0.dtd"
   xmlns:inkscape="http://www.inkscape.org/namespaces/inkscape"
   height="420"
   viewBox="-48 0 420.25 315"
   width="560.33331"
   version="1.1"
   id="svg62"
   sodipodi:docname="cogwheel.svg"
   inkscape:version="0.92.4 (5da689c313, 2019-01-14)">
  <metadata
     id="metadata68">
    <rdf:RDF>
      <cc:Work
         rdf:about="">
        <dc:format>image/svg+xml</dc:format>
        <dc:type
           rdf:resource="http://purl.org/dc/dcmitype/StillImage" />
        <dc:title></dc:title>
      </cc:Work>
    </rdf:RDF>
  </metadata>
  <defs
     id="defs66" />
  <sodipodi:namedview
     pagecolor="#ffffff"
     bordercolor="#666666"
     borderopacity="1"
     objecttolerance="10"
     gridtolerance="10"
     guidetolerance="10"
     inkscape:pageopacity="0"
     inkscape:pageshadow="2"
     inkscape:window-width="1366"
     inkscape:window-height="745"
     id="namedview64"
     showgrid="false"
     units="px"
     inkscape:zoom="2.0186758"
     inkscape:cx="223.70552"
     inkscape:cy="257.06831"
     inkscape:window-x="-8"
     inkscape:window-y="-8"
     inkscape:window-maximized="1"
     inkscape:current-layer="svg62" />
  <path
     style="fill:#e39854"
     inkscape:connector-curvature="0"
     d="M 76.249992,35.00619 H 268.24999 v 144 H 76.249992 Z m 0,0"
     id="path6" />
  <g
     style="fill:#f0d365"
     id="g16"
     transform="translate(-27.750008,-180.99381)">
    <path
       inkscape:connector-curvature="0"
       d="m 344,328 v -16 c 0,-26.51172 -21.48828,-48 -48,-48 v -32 c 44.18359,0 80,35.81641 80,80 v 16"
       id="path8" />
    <path
       inkscape:connector-curvature="0"
       d="m 56,328 v -16 c 0,-26.51172 21.488281,-48 48,-48 v -32 c -44.183594,0 -80,35.81641 -80,80 v 16"
       id="path10" />
    <path
       inkscape:connector-curvature="0"
       d="m 72,392 h 32 v 96 H 72 Z m 0,0"
       id="path12" />
    <path
       inkscape:connector-curvature="0"
       d="m 296,392 h 32 v 96 h -32 z m 0,0"
       id="path14" />
  </g>
  <path
     style="fill:#c18e59"
     inkscape:connector-curvature="0"
     d="m 140.24999,179.00619 h 64 v 64 h -64 z m 0,0"
     id="path18" />
  <path
     style="fill:#976947"
     inkscape:connector-curvature="0"
     d="M 76.249992,243.00619 H 268.24999 v 32 H 76.249992 Z m 0,0"
     id="path20" />
  <path
     inkscape:connector-curvature="0"
     d="m 164.24999,3.00619 h 16 v 32 h -16 z m 0,0"
     id="path60"
     style="fill:#f0d365;fill-opacity:1;stroke:#000000;stroke-width:6.02475023;stroke-miterlimit:4;stroke-dasharray:none;stroke-opacity:1" />
  <path
     inkscape:connector-curvature="0"
     d="M 268.24999,187.00619 H 76.249992 c -4.414062,0 -8,-3.58594 -8,-8 v -144 c 0,-4.41406 3.585938,-8 8,-8 H 268.24999 c 4.41406,0 8,3.58594 8,8 v 144 c 0,4.41406 -3.58594,8 -8,8 z m -183.999998,-16 H 260.24999 v -128 H 84.249992 Z m 0,0"
     id="path26" />
  <path
     inkscape:connector-curvature="0"
     d="m 4.249992,147.00619 h -16 v -16 c 0,-48.51953 39.480469,-88 88,-88 v 16 c -39.695312,0 -72,32.30469 -72,72 z m 0,0"
     id="path28" />
  <path
     inkscape:connector-curvature="0"
     d="m 36.249992,147.00619 h -16 v -16 c 0,-30.87891 25.121094,-56 56,-56 v 16 c -22.054688,0 -40,17.94531 -40,40 z m 0,0"
     id="path30" />
  <path
     inkscape:connector-curvature="0"
     d="m 12.249992,219.00619 c -22.054688,0 -40,-17.94531 -40,-40 0,-22.05469 17.945312,-40 40,-40 22.054688,0 40,17.94531 40,40 h -16 c 0,-13.23047 -10.769531,-24 -24,-24 -13.230469,0 -24,10.76953 -24,24 0,13.23047 10.769531,24 24,24 z m 0,0"
     id="path32" />
  <path
     inkscape:connector-curvature="0"
     d="m 356.24999,147.00619 h -16 v -16 c 0,-39.69531 -32.30469,-72 -72,-72 v -16 c 48.51953,0 88,39.48047 88,88 z m 0,0"
     id="path34" />
  <path
     inkscape:connector-curvature="0"
     d="m 324.24999,147.00619 h -16 v -16 c 0,-22.05469 -17.94531,-40 -40,-40 v -16 c 30.87891,0 56,25.12109 56,56 z m 0,0"
     id="path36" />
  <path
     inkscape:connector-curvature="0"
     d="m 332.24999,219.00619 v -16 c 13.23047,0 24,-10.76953 24,-24 0,-13.23047 -10.76953,-24 -24,-24 -13.23047,0 -24,10.76953 -24,24 h -16 c 0,-22.05469 17.94531,-40 40,-40 22.05469,0 40,17.94531 40,40 0,22.05469 -17.94531,40 -40,40 z m 0,0"
     id="path38" />
  <path
     inkscape:connector-curvature="0"
     d="m 76.249992,315.00619 h -32 c -4.414062,0 -8,-3.58594 -8,-8 v -96 c 0,-4.41406 3.585938,-8 8,-8 h 32 c 4.41406,0 8,3.58594 8,8 v 96 c 0,4.41406 -3.58594,8 -8,8 z m -24,-16 h 16 v -80 h -16 z m 0,0"
     id="path40" />
  <path
     inkscape:connector-curvature="0"
     d="m 300.24999,315.00619 h -32 c -4.41406,0 -8,-3.58594 -8,-8 v -96 c 0,-4.41406 3.58594,-8 8,-8 h 32 c 4.41406,0 8,3.58594 8,8 v 96 c 0,4.41406 -3.58594,8 -8,8 z m -24,-16 h 16 v -80 h -16 z m 0,0"
     id="path42" />
  <path
     inkscape:connector-curvature="0"
     d="M 76.249992,235.00619 H 268.24999 v 16 H 76.249992 Z m 0,0"
     id="path44" />
  <path
     inkscape:connector-curvature="0"
     d="M 76.249992,267.00619 H 268.24999 v 16 H 76.249992 Z m 0,0"
     id="path46" />
  <path
     inkscape:connector-curvature="0"
     d="m 132.24999,179.00619 h 16 v 64 h -16 z m 0,0"
     id="path48" />
  <path
     inkscape:connector-curvature="0"
     d="m 196.24999,179.00619 h 16 v 64 h -16 z m 0,0"
     id="path50" />
  <path
     d="m 132.24999,143.735 h 80 v 11.27119 h -80 z m 0,0"
     id="path52"
     inkscape:connector-curvature="0"
     style="stroke-width:0.8393147" />
  <path
     d="m 116.24999,122.85694 c 8.52446,-3.65334 60.64567,-23.63003 112,0 4.84503,2.22938 0,-21.25424 0,-21.25424 h -112 z"
     id="path54"
     inkscape:connector-curvature="0"
     sodipodi:nodetypes="csccc" />
  <path
     inkscape:connector-curvature="0"
     d="m 100.24999,59.00619 13.02775,12.632043 12.63205,-9.635617 -11.54163,20.434188 z"
     id="path56"
     sodipodi:nodetypes="ccccc" />
  <path
     style="stroke-width:0.99999994"
     inkscape:connector-curvature="0"
     d="m 224.13414,59.00619 13.02775,12.632043 12.63205,-9.635617 -11.54163,20.434188 z"
     id="path56-1"
     sodipodi:nodetypes="ccccc" />
</svg>
