<?xml version="1.0" encoding="UTF-8" standalone="no"?>
<!-- Created with Inkscape (http://www.inkscape.org/) -->

<svg
   xmlns:dc="http://purl.org/dc/elements/1.1/"
   xmlns:cc="http://creativecommons.org/ns#"
   xmlns:rdf="http://www.w3.org/1999/02/22-rdf-syntax-ns#"
   xmlns:svg="http://www.w3.org/2000/svg"
   xmlns="http://www.w3.org/2000/svg"
   xmlns:sodipodi="http://sodipodi.sourceforge.net/DTD/sodipodi-0.dtd"
   xmlns:inkscape="http://www.inkscape.org/namespaces/inkscape"
   width="89.638"
   height="70"
   viewBox="0 0 23.71672 18.520834"
   version="1.1"
   id="svg873"
   inkscape:version="0.92.4 (5da689c313, 2019-01-14)"
   sodipodi:docname="favico.svg">
  <defs
     id="defs867">
    <clipPath
       clipPathUnits="userSpaceOnUse"
       id="clipPath1663">
      <rect
         style="fill:#976947;fill-opacity:1;stroke:#000000;stroke-width:1.05107093;stroke-miterlimit:4;stroke-dasharray:none;stroke-opacity:1"
         id="rect1665"
         width="39.876488"
         height="29.229847"
         x="79.186012"
         y="54.087456" />
    </clipPath>
  </defs>
  <sodipodi:namedview
     id="base"
     pagecolor="#ffffff"
     bordercolor="#666666"
     borderopacity="1.0"
     inkscape:pageopacity="0.0"
     inkscape:pageshadow="2"
     inkscape:zoom="1.4"
     inkscape:cx="-38.746728"
     inkscape:cy="-32.710319"
     inkscape:document-units="mm"
     inkscape:current-layer="layer1"
     showgrid="false"
     inkscape:window-width="1366"
     inkscape:window-height="745"
     inkscape:window-x="-8"
     inkscape:window-y="-8"
     inkscape:window-maximized="1"
     units="px" />
  <metadata
     id="metadata870">
    <rdf:RDF>
      <cc:Work
         rdf:about="">
        <dc:format>image/svg+xml</dc:format>
        <dc:type
           rdf:resource="http://purl.org/dc/dcmitype/StillImage" />
        <dc:title></dc:title>
      </cc:Work>
    </rdf:RDF>
  </metadata>
  <g
     inkscape:label="Capa 1"
     inkscape:groupmode="layer"
     id="layer1"
     transform="translate(0,-278.47916)">
    <g
       id="g1447"
       transform="matrix(1.0324822,0,0,1.0324822,-81.02202,112.99811)">
      <path
         inkscape:connector-curvature="0"
         d="m 82.071196,163.95142 c 0.579274,-0.34481 1.004654,-0.88951 1.609487,-1.195 0.03926,-0.0198 0.392144,-0.13321 0.487485,-0.16123 -0.183924,0.167 -0.319289,0.41343 -0.551774,0.50099 -0.13796,0.052 0.131592,-0.26741 0.227912,-0.37901 0.09791,-0.11345 0.196955,-0.2762 0.346455,-0.28649 0.65149,-0.0448 0.722278,0.602 0.817166,1.03476 0.208671,0.62581 0.10679,0.11769 0.05056,0.76464 -0.01,0.11504 0.04778,0.35869 -0.0078,0.48522 -0.229949,0.52311 -0.249708,0.0851 -0.14014,0.60516 -0.628567,0.90826 0.08249,-0.19489 -0.429958,0.87594 -0.0539,0.11263 -0.18153,0.18565 -0.216928,0.30539 -0.03248,0.10986 0.04047,0.22919 0.02533,0.34275 -0.03429,0.25724 -0.257433,0.39304 -0.425961,0.55677 -0.165483,-0.0697 3e-5,0.16847 0.0029,0.12642 0.02918,-0.42644 -0.270953,-0.0835 -0.473168,-0.43582 -0.107981,-0.18812 0.187933,-0.44071 0.280041,-0.53905 -0.05588,-0.0321 0.113561,-0.20508 0.04113,-0.21573 -0.04767,-0.007 -0.05394,0.0798 -0.08091,0.11977 0.08291,-0.17431 0.14929,-0.3575 0.248728,-0.52294 0.01985,-0.033 0.07181,-0.0316 0.100203,-0.0576 0.08505,-0.078 0.158247,-0.16802 0.23737,-0.25203 0.699335,-0.51843 -0.209312,0.20406 0.561571,-0.63485 0.177624,-0.1933 0.398247,-0.34239 0.589813,-0.52188 0.195983,-0.18363 0.358,-0.40527 0.572371,-0.56706 0.833723,-0.46397 0.481564,-0.21317 1.083409,-0.71305 0.320474,-0.3393 0.527311,-0.55142 1.115247,-0.0915 0.199152,0.15578 -0.03765,0.60329 -0.0954,0.74545 -0.02541,0.13367 -0.06289,0.2656 -0.07624,0.401 -0.0097,0.0986 0.02352,0.19942 0.0074,0.2972 -0.06222,0.37724 -0.294826,0.54047 -0.504528,0.87566 -0.315051,0.50359 -0.297271,0.52254 -0.47842,1.01672 -0.0112,0.28959 0.01123,0.62363 -0.151851,0.88686 -0.0707,0.11412 -0.247984,0.13911 -0.308407,0.25898 -0.07351,0.14583 -0.02218,0.32826 -0.06678,0.48536 -0.05383,0.18963 -0.170623,0.35552 -0.24896,0.5364 0.219883,0.12495 0.151105,0.0259 -0.0079,0.29222 -0.05692,0.0953 -0.09818,0.19978 -0.15889,0.29274 -0.06481,0.0992 -0.152964,0.0839 0.06419,0.11164 -0.03969,-0.11492 -0.0049,-0.30305 -0.11906,-0.34474 -0.190911,-0.0697 -0.407512,0.13114 -0.604364,0.0806 -0.07391,-0.019 0.03657,-0.14973 0.07206,-0.21728 0.166356,-0.31656 0.426763,-0.47377 0.273759,-0.84689 0.112769,-0.12888 0.238269,-0.24765 0.338305,-0.38665 0.293607,-0.40796 -0.230004,-0.14822 0.546208,-0.58539 0.444728,-0.25048 0.928111,-0.2802 1.301387,-0.65952 0.123882,-0.12588 0.165723,-0.31195 0.248584,-0.46792 0.01881,-0.0374 0.02903,-0.0805 0.05644,-0.11206 0.07075,-0.0816 0.164072,-0.14161 0.234533,-0.22342 0.0339,-0.0394 0.0428,-0.096 0.07538,-0.13641 0.07997,-0.0993 0.181826,-0.17985 0.260211,-0.28044 0.0801,-0.10278 0.432662,-0.70729 0.455886,-0.7464 0.141601,-0.0878 0.353016,-0.27613 0.422726,-0.44056 0.0331,-0.0781 -0.03786,-0.25861 0.0465,-0.25009 1.057778,0.10682 0.918502,0.1512 0.859445,0.76197 -0.314455,0.61445 0.140988,1.32461 -0.02348,1.94797 -0.147712,0.55983 -0.508553,1.00844 -0.822802,1.47574 -0.164899,0.18123 -0.323359,0.36854 -0.494697,0.54369 -0.131002,0.13392 -0.259165,0.27378 -0.411549,0.38275 -0.109907,0.0786 -0.250069,0.1047 -0.366332,0.17355 -0.237684,0.14076 -0.537557,0.41428 -0.667945,0.64285 -0.105202,0.18442 -0.143173,0.39976 -0.21476,0.59964 -0.07043,0.23705 -0.118138,0.48208 -0.211288,0.71116 -0.100871,0.24806 -0.271241,0.4644 -0.368228,0.71401 -0.09124,0.2348 -0.117454,0.49035 -0.193098,0.73062 -0.04753,0.15099 -0.156554,0.28401 -0.175789,0.44113 -0.01302,0.1063 0.126324,0.21187 0.08381,0.31017 -0.07334,0.16956 -0.259192,0.26331 -0.388788,0.39497 -0.01989,0.10483 -0.07428,0.45831 -0.142701,0.54942 -0.06482,0.0863 -0.200271,0.10344 -0.259529,0.19366 -0.02626,0.04 0.02961,0.091 0.04225,0.13714 0.03669,0.1338 0.02624,0.0898 0.0045,0.2417 0.03586,0.0388 0.159177,0.12755 0.10757,0.11633 -0.288108,-0.0627 -0.61154,-0.0899 -0.840455,-0.27578 -0.08189,-0.0665 0.116542,-0.17608 0.180994,-0.25957 0.08728,-0.11307 0.186286,-0.21674 0.273798,-0.32963 0.172345,-0.22231 0.332998,-0.45353 0.50506,-0.67606 0.180969,-0.18301 0.361938,-0.36601 0.542908,-0.54901 0.153031,-0.17612 0.296991,-0.36055 0.459092,-0.52835 0.184789,-0.19129 0.412549,-0.34124 0.580311,-0.54763 0.287031,-0.35311 0.361789,-0.65687 0.586735,-1.01875 0.05153,-0.0829 0.11813,-0.15542 0.177195,-0.23313 -0.01113,-0.60682 -0.06449,-0.13459 0.430289,-0.93455 0.213857,-0.34576 0.459329,-0.96941 0.77857,-1.25253 0.205036,-0.18183 0.480682,-0.26434 0.710714,-0.41329 0.213942,-0.13854 0.413042,-0.29876 0.619563,-0.44813 0.224703,-0.16689 0.76617,-0.56034 0.95058,-0.73763 0.26763,-0.25731 0.813003,-1.06337 0.946344,-1.25111 0.74524,-1.04928 0.441203,-0.55166 1.00335,-1.641 0.07124,-0.10078 0.786025,-1.0858 0.88372,-1.30661 0.05525,-0.12487 0.05519,-0.26779 0.07141,-0.40337 0.0067,-0.0562 -0.04896,-0.20253 -0.0028,-0.16976 0.23067,0.16383 0.321474,0.61555 0.603767,0.59658 0.221807,-0.0149 0.105668,-0.43187 0.158502,-0.64781 0.01925,-0.0277 0.02438,-0.0884 0.05774,-0.0832 0.346136,0.0534 0.312745,0.25259 0.433067,0.54167 0.04567,0.10972 0.123514,0.20948 0.142609,0.32678 0.07038,0.43235 0.01896,0.84263 -0.01301,1.27145 -0.01,0.15647 0.02286,0.32177 -0.02988,0.46941 -0.05036,0.14096 -0.175314,0.24273 -0.266833,0.36117 -0.749688,0.97024 -0.0292,0.0432 -0.968027,1.06046 -0.171015,0.18531 -0.319874,0.38994 -0.483565,0.58174 -0.150746,0.17663 -0.306439,0.34898 -0.459659,0.52348 -0.07801,0.11415 -0.156026,0.22831 -0.234039,0.34246 0.0047,0.0702 0.05258,0.15174 0.01404,0.21061 -0.05468,0.0835 -0.183606,0.0874 -0.254871,0.15729 -0.100356,0.0984 -0.156937,0.23445 -0.250968,0.33896 -0.127668,0.14189 -0.302985,0.24104 -0.411907,0.39778 -0.162156,0.23335 -0.260625,0.50504 -0.390939,0.75756 -0.438848,0.68442 -0.505357,0.73611 -0.853087,1.50577 -0.142515,0.31544 -0.251022,0.64545 -0.391839,0.96165 -0.152765,0.34303 -0.330269,0.67456 -0.48849,1.0151 -0.454418,0.97807 -0.373891,0.81243 -0.717283,1.73457 -0.191698,0.11281 -0.409605,0.18982 -0.575095,0.33844 -0.09925,0.0891 -0.124118,0.23631 -0.192464,0.35087 -0.07202,0.1113 -0.144043,0.2226 -0.216065,0.3339 -0.03866,0.0878 -0.0671,0.18091 -0.115995,0.26348 -0.04064,0.0686 -0.103314,0.12178 -0.150294,0.18626 -0.07598,0.10428 -0.145549,0.2131 -0.218324,0.31965 -0.24686,0.45679 0.104008,-0.12639 -0.143525,-0.6261 -0.05118,-0.10333 -0.272871,0.0527 -0.343806,-0.0382 -0.05637,-0.0722 0.195821,-0.002 0.268685,-0.058 0.323907,-0.24697 0.09928,-0.21677 0.01723,-0.21394 0.407459,-0.0249 -0.04916,0.0182 -0.002,-0.0477 0.121457,-0.16945 0.321414,-0.26685 0.466769,-0.4163 0.56888,-0.58491 -0.281915,0.15706 0.325933,-0.50901 0.03232,-0.0354 0.09016,-0.0327 0.135245,-0.049 -0.03031,-0.0548 -0.08083,-0.10269 -0.09092,-0.16453 -0.004,-0.0247 0.04794,-0.0265 0.05586,-0.0502 0.0305,-0.0914 0.01497,-0.19629 0.05553,-0.2837 0.08321,-0.17934 0.169603,-0.36667 0.310549,-0.50531 0.228589,-0.22484 1.284155,-0.65591 1.431603,-0.72215 0.233643,-0.20355 0.467285,-0.40709 0.700928,-0.61063 0.263046,-0.16502 0.550233,-0.29669 0.789138,-0.49505 0.223443,-0.18552 0.406933,-0.41626 0.58487,-0.64579 0.142131,-0.18334 0.288043,-0.37196 0.371816,-0.58829 0.02691,-0.0695 0.04398,-0.62053 0.04941,-0.76165 -0.03466,-0.008 -0.129552,5.6e-4 -0.103968,-0.0242 0.528024,-0.51036 0.597895,-0.6142 1.079686,0.032 0.06748,0.0905 0.04017,0.22227 0.06498,0.33242 0.05287,0.23475 0.116727,0.4669 0.172843,0.7009 -0.03908,0.12953 -0.07815,0.25905 -0.117225,0.38858 -0.01303,0.14549 0.0028,0.29653 -0.03909,0.43647 -0.05057,0.16894 -0.167674,0.31111 -0.233651,0.47465 -0.06434,0.15949 -0.082,0.33658 -0.156211,0.49172 -0.241497,0.50488 -0.257477,0.13557 -0.212189,0.46721 -0.554543,0.081 -10e-4,-0.008 -0.0087,0.0243 -0.03055,0.12948 -0.187383,0.19049 -0.264411,0.29896 -0.02913,0.041 0.110557,-0.14318 0.118501,-0.0935 0.04442,0.27777 -0.01282,0.27792 -0.144488,0.31995 -0.03194,-0.0224 0.06255,-0.0786 0.07754,-0.0515 0.02171,0.0394 0.051,0.29107 -0.04982,0.27544 -0.322024,-0.0499 -0.677351,-0.11027 -0.921693,-0.32589 -0.09195,-0.0811 0.140186,-0.20124 0.210279,-0.30187 0.214358,-0.20851 0.333774,-0.50139 0.517005,-0.731 0.03634,-0.0455 0.09341,-0.0697 0.138349,-0.10678 0.05494,-0.0453 0.09658,-0.11024 0.161169,-0.14022 0.09727,-0.0452 0.207867,-0.0529 0.311801,-0.0793 1.024994,0.79169 0.49266,0.3342 0.435651,1.24654 -0.006,0.0962 0.0022,0.19446 0.02506,0.2881 0.06431,0.26319 0.133063,0.086 0.04771,0.2456 0.162256,0.0912 -0.02727,0.20053 -0.02573,0.33241 6.08e-4,0.0521 0.06044,0.0951 0.05358,0.14672 -0.01018,0.0766 -0.108289,0.13194 -0.100804,0.20889 0.0082,0.0839 0.09435,0.13979 0.141528,0.20969 0.209907,-0.15363 0.02262,0.3543 -0.06797,-0.15606 -0.01082,-0.0609 0.101497,0.0792 0.126637,0.13576 0.01088,0.0245 -0.05572,-0.007 -0.07679,-0.0236 -0.01327,-0.0104 -0.01,-0.0322 -0.01497,-0.0483 0.03602,0.0354 0.07204,0.0708 0.108061,0.10619 0.596457,-0.0492 0.666071,0.79429 0.06961,0.84351 v 0 c -0.06005,0.0119 -0.120101,0.0239 -0.180152,0.0358 -0.07738,-0.0229 -0.152401,-0.0563 -0.232154,-0.0686 -0.08731,-0.0134 -0.177658,-0.0218 -0.264889,-0.008 -0.01748,0.003 0.001,0.0648 -0.0111,0.0519 -0.266711,-0.28342 -0.36147,-0.50605 -0.443171,-0.87424 -0.01196,-0.0715 -0.01689,-0.1445 -0.03588,-0.21444 -0.02041,-0.0751 -0.08144,-0.14092 -0.08178,-0.21877 -3.7e-4,-0.0844 0.147406,-0.13938 0.124419,-0.22062 -0.06008,-0.21233 -0.158121,0.14551 -0.04491,-0.15101 -0.190318,-0.41768 0.02771,0.18838 0.140628,-0.38034 0.02291,-0.11536 -0.08269,-0.22204 -0.09994,-0.33838 -0.01723,-0.11626 -0.0052,-0.23509 -0.0025,-0.35259 0.01255,-0.5448 -0.02833,-0.3194 0.668044,-0.004 0.03071,-0.0362 0.105275,-0.15442 0.09213,-0.10876 -0.01244,0.0432 -0.273423,0.48496 -0.290379,0.49817 -0.02887,0.0225 -0.05525,-0.10279 -0.07966,-0.0755 -0.532539,0.59458 0.434927,-0.0776 -0.266164,0.36378 -0.0229,0.61497 0.06978,0.3718 -1.177804,0.33031 -0.03904,-0.001 -0.0031,-0.0786 0.0034,-0.11715 0.01031,-0.0611 0.04511,-0.11809 0.04671,-0.18009 0.01196,-0.4619 -0.145823,-0.0537 0.105101,-0.51067 0.141881,-0.21739 0.186327,-0.22626 0.272043,-0.55027 0.0212,-0.0801 -0.07976,0.29705 -0.113436,0.2213 -6.88e-4,-0.002 0.07165,-0.24417 0.0993,-0.33695 0.05573,-0.0357 0.109842,-0.074 0.167176,-0.10709 0.04892,-0.0282 0.117047,-0.0314 0.151162,-0.0764 0.255657,-0.33714 0.253475,-0.50099 0.282179,-0.91432 0.0048,-0.0695 -0.02468,-0.14065 -0.01,-0.20875 0.02167,-0.10044 0.07772,-0.19025 0.116581,-0.28537 -0.117009,-0.34604 -0.08233,-0.15667 -0.07942,-0.57208 -0.03797,-0.11954 -0.32889,-0.28442 -0.207048,-0.31418 0.188355,-0.046 0.344017,0.28147 0.532198,0.23476 0.33789,-0.0839 0.649048,-0.87894 0.369309,-0.23697 -0.262031,0.36667 -0.218007,0.26651 -0.423604,0.83589 -0.104754,0.29011 -0.08662,0.64347 -0.283643,0.88078 -0.214365,0.25819 -0.591524,0.3195 -0.869269,0.50785 -3.004593,2.03747 1.555159,-0.85217 -1.49278,1.05303 -0.974401,0.74964 -0.48043,0.28472 -1.063607,0.95857 -0.03589,0.0415 -0.14546,0.12307 -0.157222,0.172 -0.04434,0.18443 0.06044,0.38861 -0.0536,0.56654 -0.104735,0.44984 0.0016,0.31231 -0.36915,0.60668 -0.119426,0.0948 -0.220932,0.2314 -0.367976,0.27178 -0.05667,0.0156 0.0085,-0.23357 0.01719,-0.17546 0.01456,0.0968 0.02587,0.19906 5.82e-4,0.2936 -0.02093,0.0782 -0.08896,0.13536 -0.133436,0.20304 -0.06942,0.10543 -0.110091,0.23695 -0.20827,0.31631 -0.07418,0.06 -0.191639,0.0309 -0.276107,0.0752 -0.247656,0.12994 -0.287988,0.73183 -0.827182,0.27333 -0.217374,-0.18484 -0.14799,-0.55579 -0.160378,-0.84086 -0.002,-0.0459 0.08064,-0.0442 0.12096,-0.0663 0.03368,-0.1731 0.300113,-0.55354 0.401224,-0.67488 0.104917,-0.12591 0.244632,-0.22063 0.345556,-0.34976 0.126124,-0.16138 0.197826,-0.36227 0.331932,-0.51707 0.07539,-0.087 0.19002,-0.13008 0.285029,-0.19512 1.118709,-1.48039 -0.401356,0.62844 0.803503,-1.49232 0.18453,-0.32481 0.480953,-0.57757 0.66171,-0.90449 0.171747,-0.31062 0.254752,-0.66263 0.3869,-0.99206 0.445465,-1.11048 0.217448,-0.67835 0.841179,-1.58306 0.134141,-0.26757 0.279277,-0.52991 0.402422,-0.80271 0.246169,-0.54535 0.181288,-0.68927 0.588954,-1.15154 0.02088,-0.0237 0.05104,0.0659 0.07929,0.0518 0.09676,-0.0483 0.40195,-0.43373 0.439593,-0.47867 0.904496,-0.62515 0.225391,-0.0384 0.93314,-1.12678 0.167477,-0.25754 0.355345,-0.50315 0.562111,-0.73035 0.07743,-0.0851 0.203911,-0.11417 0.282713,-0.19799 0.08761,-0.0932 0.128651,-0.32698 0.156543,-0.44021 0.04999,-0.38098 0.116309,-0.54981 -0.0072,-0.92714 -0.02618,-0.08 -0.110545,-0.12937 -0.14753,-0.205 -0.0081,-0.0165 0.01693,-0.0327 0.02275,-0.0502 0.05822,-0.17412 3.97e-4,-0.0988 -0.216143,-0.29694 -0.134155,-0.93233 -0.418592,-1.53256 0.784956,-0.10448 0.05029,0.0597 -0.174515,-0.0218 -0.232062,0.0309 -0.126622,0.11598 -0.18977,0.28645 -0.276346,0.43474 -0.604684,1.03571 -0.03564,0.22379 -0.854578,1.28943 -1.578036,3.01024 0.79666,-1.40303 -1.07738,1.67713 -0.197664,0.32488 -0.30483,0.69869 -0.496306,1.02725 -0.106915,0.18346 -0.235306,0.35949 -0.394037,0.50054 -0.168239,0.14949 -0.381567,0.23878 -0.57235,0.35818 -0.174835,0.16068 -0.349671,0.32136 -0.524507,0.48204 -0.216836,0.0829 -0.448591,0.13406 -0.650508,0.24857 -0.308398,0.17489 -0.670295,0.56955 -0.849409,0.87099 -0.115459,0.19431 -0.186741,0.41167 -0.278595,0.61819 -0.264685,0.59509 -0.194439,0.4332 -0.41321,0.9872 -0.05566,0.15685 -0.07091,0.33464 -0.16698,0.47055 -0.08986,0.12712 -0.247879,0.18849 -0.368461,0.28694 -0.180054,0.14701 -0.380261,0.27435 -0.533285,0.44933 -0.188898,0.21599 -0.325704,0.47257 -0.482901,0.71262 -0.126904,0.19379 -0.212203,0.41844 -0.369271,0.58871 -0.14098,0.15282 -0.338583,0.24142 -0.507875,0.36212 -0.09198,0.20428 -0.306502,0.71043 -0.44273,0.89754 -0.05519,0.0758 -0.159316,0.1063 -0.214179,0.18233 -0.04048,0.0561 0.0066,0.18195 -0.06061,0.19849 -0.347466,0.0856 -0.714261,0.11344 -1.070562,0.0802 -0.06113,-0.006 0.03888,-0.11647 0.05832,-0.17471 -0.0315,-0.0836 -0.08481,-0.16189 -0.0945,-0.25066 -0.02733,-0.25023 0.03744,-0.44246 0.152256,-0.65698 0.03603,-0.0673 0.104886,-0.11527 0.133753,-0.18596 0.04895,-0.11987 0.06394,-0.25095 0.0959,-0.37642 0.0619,-0.12808 0.123801,-0.25616 0.185701,-0.38424 0.03041,-0.01 0.07034,-0.005 0.09123,-0.0287 0.232157,-0.26762 0.237992,-0.4815 0.365311,-0.8284 0.08396,-0.22876 0.195327,-0.44764 0.266818,-0.6806 0.383253,-1.24885 -0.09075,-0.41666 0.633696,-1.43587 0.05468,-0.25742 0.05053,-0.53484 0.164028,-0.77228 0.13932,-0.29146 0.607345,-0.76877 0.904503,-0.97827 0.10907,-0.0769 0.246009,-0.10903 0.35316,-0.18858 0.812734,-0.60337 -0.614543,0.13163 0.854745,-0.5325 0.137759,-0.16785 0.33056,-0.30278 0.413278,-0.50356 0.07649,-0.18566 0.01042,-0.40262 0.04178,-0.60096 0.03007,-0.19018 0.131313,-0.3677 0.141766,-0.55996 0.0103,-0.18945 -0.05716,-0.37519 -0.08069,-0.56346 -0.07344,-0.58762 0.01499,-0.1812 -0.116982,-0.69088 0.0031,-0.50845 -0.06576,-0.0236 0.795006,-0.13465 0.06197,-0.008 0.06464,-0.23713 0.0679,-0.17473 0.0047,0.0898 -0.02856,0.17935 -0.06332,0.26231 -0.203503,0.48563 -0.115929,0.37768 -0.541722,0.4877 -0.07663,0.35242 -0.03281,0.35142 -0.291188,0.64474 -0.08205,0.0932 -0.195443,0.15508 -0.278006,0.24778 -0.234345,0.2631 -0.398628,0.59742 -0.610346,0.87624 -0.640504,0.1523 -1.097645,0.23828 -1.539607,0.78532 -0.07676,0.095 -0.07069,0.24118 -0.14936,0.33463 -0.318151,0.37789 -0.298445,0.0432 -0.297889,0.27047 -0.05188,0.11081 -0.09464,0.22637 -0.155645,0.33244 -0.169658,0.29499 -0.236915,0.25753 -0.37277,0.58651 -0.05298,0.1283 -0.0062,0.31334 -0.114301,0.40043 -0.662857,0.53408 -0.685768,0.27653 -1.102904,-0.13165 0.02784,-0.0936 0.05965,-0.18607 0.08351,-0.28075 0.02467,-0.0979 0.02982,-0.20068 0.06195,-0.29635 0.221366,-0.65898 0.249686,0.50028 0.244151,-0.4562 0.05713,-0.0915 0.114258,-0.18306 0.171388,-0.27459 0.01389,-0.10873 -0.0054,-0.22719 0.04166,-0.32618 0.0611,-0.12849 0.220615,-0.19694 0.270473,-0.33019 0.06878,-0.18382 0.0055,-0.39966 0.07173,-0.58441 0.07673,-0.21397 0.391176,-0.29765 0.364818,-0.57614 0.346753,-1.37294 -0.115552,0.26638 0.445457,-1.13226 0.07641,-0.19051 0.108594,-0.39591 0.162891,-0.59386 0.01173,-0.0749 0.01158,-0.15273 0.03521,-0.22481 0.07324,-0.22347 0.156135,-0.31829 0.284123,-0.5054 -0.01785,-0.11496 -0.05131,-0.22856 -0.05355,-0.34488 -6.62e-4,-0.0348 0.01486,0.0842 0.04869,0.0922 0.227521,0.0538 0.470298,0.0243 0.696347,0.084 0.03817,0.0101 0.06851,0.082 0.04163,0.11087 -0.07425,0.0799 -0.189049,0.10942 -0.288348,0.15447 -0.06943,0.0315 -0.144175,0.0496 -0.216263,0.0744 -0.158407,0.0356 -0.329579,0.0349 -0.47522,0.10665 -0.380319,0.18731 -0.83547,0.69307 -1.099013,0.97886 -0.343566,0.37256 -0.67551,0.74812 -0.848269,1.23148 -0.59661,0.30323 -0.04969,-0.062 -0.390826,0.46256 -0.04571,0.0703 0.008,-0.1758 0.05456,-0.24554 0.03403,-0.051 0.01085,0.12698 -0.01309,0.1834 -0.0079,0.0185 -0.03912,-0.01 -0.05867,-0.0143 -0.04547,0.11697 -0.09093,0.23393 -0.136401,0.3509 -0.274941,0.52411 -0.595046,1.27556 -1.422573,0.90321 -0.155471,-0.07 -0.05737,-0.33628 -0.07701,-0.50563 -0.06431,-0.55439 -0.09734,-0.34426 0.277287,-0.78415 0.143884,0.0215 -0.0029,0.0197 0.14522,-0.16824 0.581946,-0.73813 -0.235529,0.64139 0.25091,-0.66785 0.03858,-0.10382 0.149688,-0.16329 0.224532,-0.24494 0.03544,-0.12773 0.07088,-0.25546 0.106326,-0.38318 0.02603,-0.11733 0.05112,-0.23487 0.07809,-0.35199 0.01017,-0.0441 0.03407,-0.0864 0.03332,-0.13172 -0.0014,-0.0815 -0.04631,-0.16002 -0.03957,-0.24123 0.0071,-0.0859 0.06447,-0.16114 0.08,-0.24594 0.06102,-0.33317 0.04412,-0.27362 -0.08347,-0.54108 0.171837,-0.33318 -0.01608,-0.0675 0.380305,-0.20733 0.11474,-0.0405 0.798132,-1.37195 -0.270331,0.24192 0.03389,0.0105 0.121903,0.0606 0.101682,0.0314 -0.103392,-0.14905 -0.49063,-0.0317 -0.565485,-0.006 -0.788118,0.26868 -0.609241,0.23694 -1.240015,0.85231 -0.417003,0.278 -0.810157,-0.31173 -0.393154,-0.58974 z"
         id="path849"
         style="opacity:1;fill:none;fill-opacity:1;stroke:#f0d365;stroke-width:1;stroke-miterlimit:4;stroke-dasharray:none;stroke-opacity:1" />
      <path
         inkscape:connector-curvature="0"
         id="path1643"
         d="m 78.473021,160.50798 c 22.525399,0 22.525399,0 22.525399,0 l 0.21798,0.9608"
         style="fill:none;stroke:#000000;stroke-width:0.46603227;stroke-linecap:butt;stroke-linejoin:miter;stroke-miterlimit:4;stroke-dasharray:none;stroke-opacity:1" />
      <g
         transform="matrix(0.56487915,0,0,0.56487915,33.742494,129.9551)"
         id="g1669">
        <path
           id="path2"
           d="m 93.739443,66.960615 c -0.322887,-0.186461 -0.735585,-0.07586 -0.921956,0.247024 -0.186371,0.322797 -0.07577,0.735585 0.247025,0.921956 l 0.565772,0.326667 -0.326667,0.565772 c -0.186371,0.322797 -0.07577,0.735585 0.247025,0.921956 0.321357,0.185561 0.734775,0.07721 0.921956,-0.247025 l 0.326667,-0.565772 0.565772,0.326667 c 0.321357,0.185561 0.734775,0.07721 0.921956,-0.247025 0.186371,-0.322797 0.07577,-0.735585 -0.247025,-0.921956 l -0.565772,-0.326667 0.856712,-1.483858 c 0.928615,0.318837 1.951361,0.234606 2.817252,-0.240546 0.86436,0.474342 1.88702,0.560013 2.81725,0.240546 l 1.04354,1.807465 -0.83017,-0.222457 c -0.35996,-0.09629 -0.73009,0.117168 -0.82665,0.477311 -0.0965,0.360053 0.11725,0.730096 0.47731,0.826656 2.55583,0.676461 2.42066,0.667282 2.57913,0.667282 0.29796,0 0.57072,-0.19888 0.65154,-0.500439 l 0.64415,-2.404015 c 0.0965,-0.360053 -0.11717,-0.730185 -0.47722,-0.826655 -0.35969,-0.09611 -0.73019,0.117168 -0.82666,0.477221 l -0.22245,0.830165 -1.04444,-1.809085 c 0.7364,-0.643344 1.203,-1.588158 1.203,-2.6406 0,-2.665978 -2.86954,-4.348986 -5.18842,-3.076516 -2.318703,-1.27238 -5.18842,0.410268 -5.18842,3.076516 0,1.052352 0.466603,1.997256 1.202997,2.6406 l -0.857612,1.485388 z M 99.14816,61.81251 c 0.633896,0.78868 0.634616,1.907985 0,2.697565 -0.633895,-0.78877 -0.634615,-1.908075 0,-2.697565 z m 3.83856,1.348783 c 0,1.412135 -1.33978,2.44406 -2.70351,2.086706 0.90603,-1.219735 0.93474,-2.914892 0,-4.173323 1.36598,-0.358074 2.70351,0.677001 2.70351,2.086617 z m -4.973524,-2.086707 c -0.906027,1.219735 -0.934734,2.914892 0,4.173323 -1.36597,0.357984 -2.703504,-0.67709 -2.703504,-2.086706 -9e-5,-1.412136 1.339694,-2.444061 2.703504,-2.086617 z"
           inkscape:connector-curvature="0"
           style="stroke-width:0.08999081" />
        <path
           id="path4"
           d="m 112.91621,83.630692 h -8.12536 c -0.0705,0 -0.12778,-0.05732 -0.12778,-0.127787 V 80.61897 c 2.07069,-1.503657 3.73768,-3.666496 3.92495,-6.208556 l 0.0323,-0.438525 c 2.26516,-0.173683 4.05544,-2.070959 4.05544,-4.379853 v -0.218768 c 0,-1.475129 -1.20012,-2.675247 -2.67525,-2.675247 h -0.84465 l 0.0677,-0.918716 c 0.42755,-5.804317 -4.17665,-10.759661 -9.996358,-10.759661 -2.290896,0 -4.529777,0.791919 -6.304306,2.229882 -0.28959,0.234696 -0.334136,0.659723 -0.09944,0.949313 0.234786,0.289501 0.659723,0.334136 0.949313,0.09944 1.557111,-1.261761 3.443229,-1.928773 5.454433,-1.928773 5.016898,0 9.023018,4.248646 8.650188,9.310629 l -0.63561,8.631109 c -0.18043,2.45027 -2.06744,4.228578 -3.17613,5.070532 -1.82673,1.387208 -3.74632,2.008145 -4.838448,2.008145 -1.092128,0 -3.011722,-0.620937 -4.838446,-2.008145 -1.108686,-0.841954 -2.995704,-2.620262 -3.176135,-5.070532 l -0.635605,-8.631109 c -0.135166,-1.835272 0.301829,-3.628609 1.263921,-5.18635 0.19582,-0.317128 0.09755,-0.733065 -0.219578,-0.928885 -0.317128,-0.19582 -0.732975,-0.09746 -0.928885,0.219577 -2.076088,3.361607 -1.36687,6.421565 -1.393958,6.913544 h -0.844563 c -1.47513,0 -2.675247,1.200118 -2.675247,2.675247 v 0.218768 c 0,2.308894 1.790367,4.20617 4.055526,4.379853 0.0629,0.171342 -0.247565,3.593783 3.957165,6.647081 v 2.883935 c 0,0.07046 -0.05732,0.127787 -0.127786,0.127787 H 85.53813 c -3.465276,0 -6.284508,2.819232 -6.284508,6.284508 v 4.594211 c 0,0.372742 0.302189,0.674931 0.674931,0.674931 0.372742,0 0.674931,-0.302189 0.674931,-0.674931 V 89.9152 c 0,-2.720962 2.213684,-4.934646 4.934646,-4.934646 h 6.683618 c 0.151184,1.626764 0.856532,3.13663 2.025513,4.30768 2.44631,2.45054 6.202979,2.701705 8.924569,0.856443 0.30849,-0.209139 0.38903,-0.628856 0.17989,-0.937434 -0.20914,-0.308579 -0.62876,-0.389211 -0.93743,-0.179892 -0.94194,0.638755 -2.04405,0.97622 -3.187118,0.97622 -2.93523,0 -5.321966,-2.209814 -5.647103,-5.023017 h 0.08342 c 0.814776,0 1.477649,-0.662872 1.477649,-1.477649 v -2.025423 c 1.427794,0.789669 2.917772,1.262391 4.085942,1.262391 1.16817,0 2.65824,-0.472722 4.08595,-1.262391 v 2.025423 c 0,0.814777 0.66287,1.477649 1.47764,1.477649 h 0.0852 c -0.0777,0.675921 -0.27484,1.324665 -0.58944,1.935613 -0.17063,0.331436 -0.0403,0.738374 0.29103,0.909087 0.33413,0.171972 0.73981,0.03753 0.90908,-0.29103 0.40757,-0.79147 0.66045,-1.663211 0.74504,-2.55358 h 6.68442 c 2.72097,0 4.93465,2.213684 4.93465,4.934646 v 9.829787 h -5.39756 v -5.849673 c 0,-0.372742 -0.30219,-0.674931 -0.67493,-0.674931 -0.37274,0 -0.67493,0.302189 -0.67493,0.674931 v 5.849673 H 87.350905 v -5.849673 c 0,-0.372742 -0.302189,-0.674931 -0.674931,-0.674931 -0.372742,0 -0.674931,0.302189 -0.674931,0.674931 v 5.849673 H 80.603484 V 97.65909 c 0,-0.372742 -0.302189,-0.674931 -0.674931,-0.674931 -0.372742,0 -0.674931,0.302189 -0.674931,0.674931 v 2.76092 c 0,0.37274 0.302189,0.67493 0.674931,0.67493 h 38.597237 c 0.37274,0 0.67493,-0.30219 0.67493,-0.67493 V 89.9152 c 0,-3.465276 -2.81923,-6.284508 -6.28451,-6.284508 z m -2.9157,-15.582808 c 0.73082,0 1.32539,0.594569 1.32539,1.325384 v 0.218768 c 0,1.529394 -1.1338,2.798444 -2.60488,3.012172 l 0.33558,-4.556324 z m -22.871972,1.544152 v -0.218768 c 0,-0.730815 0.594569,-1.325384 1.325385,-1.325384 h 0.944003 l 0.335576,4.556324 C 88.262332,72.39057 87.128538,71.12143 87.128538,69.592036 Z"
           inkscape:connector-curvature="0"
           style="stroke-width:0.08999081"
           clip-path="url(#clipPath1663)" />
      </g>
      <path
         inkscape:connector-curvature="0"
         id="path1643-0"
         d="m 101.44365,177.98011 c -22.525401,0 -22.525401,0 -22.525401,0 l -0.217987,-0.9608"
         style="fill:none;stroke:#000000;stroke-width:0.4660323;stroke-linecap:butt;stroke-linejoin:miter;stroke-miterlimit:4;stroke-dasharray:none;stroke-opacity:1" />
    </g>
  </g>
</svg>
