<?xml version="1.0" encoding="UTF-8" standalone="no"?>
<!-- Created with Inkscape (http://www.inkscape.org/) -->

<svg
   xmlns:dc="http://purl.org/dc/elements/1.1/"
   xmlns:cc="http://creativecommons.org/ns#"
   xmlns:rdf="http://www.w3.org/1999/02/22-rdf-syntax-ns#"
   xmlns:svg="http://www.w3.org/2000/svg"
   xmlns="http://www.w3.org/2000/svg"
   xmlns:sodipodi="http://sodipodi.sourceforge.net/DTD/sodipodi-0.dtd"
   xmlns:inkscape="http://www.inkscape.org/namespaces/inkscape"
   width="314.23999"
   height="100"
   viewBox="0 0 83.142662 26.458333"
   version="1.1"
   id="svg986"
   inkscape:version="0.92.4 (5da689c313, 2019-01-14)"
   sodipodi:docname="Logo.svg">
  <defs
     id="defs980">
    <clipPath
       clipPathUnits="userSpaceOnUse"
       id="clipPath1663">
      <rect
         style="fill:#976947;fill-opacity:1;stroke:#000000;stroke-width:1.05107093;stroke-miterlimit:4;stroke-dasharray:none;stroke-opacity:1"
         id="rect1665"
         width="39.876488"
         height="29.229847"
         x="79.186012"
         y="54.087456" />
    </clipPath>
  </defs>
  <sodipodi:namedview
     id="base"
     pagecolor="#ffffff"
     bordercolor="#666666"
     borderopacity="1.0"
     inkscape:pageopacity="0.0"
     inkscape:pageshadow="2"
     inkscape:zoom="1.979899"
     inkscape:cx="132.65516"
     inkscape:cy="52.288346"
     inkscape:document-units="mm"
     inkscape:current-layer="layer1"
     showgrid="false"
     inkscape:window-width="1366"
     inkscape:window-height="745"
     inkscape:window-x="-8"
     inkscape:window-y="-8"
     inkscape:window-maximized="1"
     units="px" />
  <metadata
     id="metadata983">
    <rdf:RDF>
      <cc:Work
         rdf:about="">
        <dc:format>image/svg+xml</dc:format>
        <dc:type
           rdf:resource="http://purl.org/dc/dcmitype/StillImage" />
        <dc:title></dc:title>
      </cc:Work>
    </rdf:RDF>
  </metadata>
  <g
     inkscape:label="Capa 1"
     inkscape:groupmode="layer"
     id="layer1"
     transform="translate(0,-270.54167)">
    <g
       id="g1693"
       transform="matrix(0.56487915,0,0,0.56487915,-7.6375219,227.61237)">
      <text
         id="text1533"
         y="118.69495"
         x="12.949875"
         style="font-style:normal;font-weight:normal;font-size:17.67254448px;line-height:9.20444965px;font-family:sans-serif;letter-spacing:0px;word-spacing:0px;fill:#976947;fill-opacity:1;stroke:#000000;stroke-width:0.84299999;stroke-miterlimit:4;stroke-dasharray:none;stroke-opacity:1"
         xml:space="preserve"><tspan
           style="fill:#976947;fill-opacity:1;stroke:#000000;stroke-width:0.84299999;stroke-miterlimit:4;stroke-dasharray:none;stroke-opacity:1"
           y="118.69495"
           x="12.949875"
           id="tspan1531"
           sodipodi:role="line">C U R I O S I TO</tspan></text>
      <path
         inkscape:connector-curvature="0"
         id="path1643"
         d="m 15.308036,99.885414 c 58.586307,0 58.586307,0 58.586307,0 l 0.566965,1.700896"
         style="fill:none;stroke:#000000;stroke-width:1;stroke-linecap:butt;stroke-linejoin:miter;stroke-miterlimit:4;stroke-dasharray:none;stroke-opacity:1" />
      <g
         transform="translate(-10.394345,20.977679)"
         id="g1669">
        <path
           id="path2"
           d="m 93.739443,66.960615 c -0.322887,-0.186461 -0.735585,-0.07586 -0.921956,0.247024 -0.186371,0.322797 -0.07577,0.735585 0.247025,0.921956 l 0.565772,0.326667 -0.326667,0.565772 c -0.186371,0.322797 -0.07577,0.735585 0.247025,0.921956 0.321357,0.185561 0.734775,0.07721 0.921956,-0.247025 l 0.326667,-0.565772 0.565772,0.326667 c 0.321357,0.185561 0.734775,0.07721 0.921956,-0.247025 0.186371,-0.322797 0.07577,-0.735585 -0.247025,-0.921956 l -0.565772,-0.326667 0.856712,-1.483858 c 0.928615,0.318837 1.951361,0.234606 2.817252,-0.240546 0.86436,0.474342 1.88702,0.560013 2.81725,0.240546 l 1.04354,1.807465 -0.83017,-0.222457 c -0.35996,-0.09629 -0.73009,0.117168 -0.82665,0.477311 -0.0965,0.360053 0.11725,0.730096 0.47731,0.826656 2.55583,0.676461 2.42066,0.667282 2.57913,0.667282 0.29796,0 0.57072,-0.19888 0.65154,-0.500439 l 0.64415,-2.404015 c 0.0965,-0.360053 -0.11717,-0.730185 -0.47722,-0.826655 -0.35969,-0.09611 -0.73019,0.117168 -0.82666,0.477221 l -0.22245,0.830165 -1.04444,-1.809085 c 0.7364,-0.643344 1.203,-1.588158 1.203,-2.6406 0,-2.665978 -2.86954,-4.348986 -5.18842,-3.076516 -2.318703,-1.27238 -5.18842,0.410268 -5.18842,3.076516 0,1.052352 0.466603,1.997256 1.202997,2.6406 l -0.857612,1.485388 z M 99.14816,61.81251 c 0.633896,0.78868 0.634616,1.907985 0,2.697565 -0.633895,-0.78877 -0.634615,-1.908075 0,-2.697565 z m 3.83856,1.348783 c 0,1.412135 -1.33978,2.44406 -2.70351,2.086706 0.90603,-1.219735 0.93474,-2.914892 0,-4.173323 1.36598,-0.358074 2.70351,0.677001 2.70351,2.086617 z m -4.973524,-2.086707 c -0.906027,1.219735 -0.934734,2.914892 0,4.173323 -1.36597,0.357984 -2.703504,-0.67709 -2.703504,-2.086706 -9e-5,-1.412136 1.339694,-2.444061 2.703504,-2.086617 z"
           inkscape:connector-curvature="0"
           style="stroke-width:0.08999081" />
        <path
           id="path4"
           d="m 112.91621,83.630692 h -8.12536 c -0.0705,0 -0.12778,-0.05732 -0.12778,-0.127787 V 80.61897 c 2.07069,-1.503657 3.73768,-3.666496 3.92495,-6.208556 l 0.0323,-0.438525 c 2.26516,-0.173683 4.05544,-2.070959 4.05544,-4.379853 v -0.218768 c 0,-1.475129 -1.20012,-2.675247 -2.67525,-2.675247 h -0.84465 l 0.0677,-0.918716 c 0.42755,-5.804317 -4.17665,-10.759661 -9.996358,-10.759661 -2.290896,0 -4.529777,0.791919 -6.304306,2.229882 -0.28959,0.234696 -0.334136,0.659723 -0.09944,0.949313 0.234786,0.289501 0.659723,0.334136 0.949313,0.09944 1.557111,-1.261761 3.443229,-1.928773 5.454433,-1.928773 5.016898,0 9.023018,4.248646 8.650188,9.310629 l -0.63561,8.631109 c -0.18043,2.45027 -2.06744,4.228578 -3.17613,5.070532 -1.82673,1.387208 -3.74632,2.008145 -4.838448,2.008145 -1.092128,0 -3.011722,-0.620937 -4.838446,-2.008145 -1.108686,-0.841954 -2.995704,-2.620262 -3.176135,-5.070532 l -0.635605,-8.631109 c -0.135166,-1.835272 0.301829,-3.628609 1.263921,-5.18635 0.19582,-0.317128 0.09755,-0.733065 -0.219578,-0.928885 -0.317128,-0.19582 -0.732975,-0.09746 -0.928885,0.219577 -2.076088,3.361607 -1.36687,6.421565 -1.393958,6.913544 h -0.844563 c -1.47513,0 -2.675247,1.200118 -2.675247,2.675247 v 0.218768 c 0,2.308894 1.790367,4.20617 4.055526,4.379853 0.0629,0.171342 -0.247565,3.593783 3.957165,6.647081 v 2.883935 c 0,0.07046 -0.05732,0.127787 -0.127786,0.127787 H 85.53813 c -3.465276,0 -6.284508,2.819232 -6.284508,6.284508 v 4.594211 c 0,0.372742 0.302189,0.674931 0.674931,0.674931 0.372742,0 0.674931,-0.302189 0.674931,-0.674931 V 89.9152 c 0,-2.720962 2.213684,-4.934646 4.934646,-4.934646 h 6.683618 c 0.151184,1.626764 0.856532,3.13663 2.025513,4.30768 2.44631,2.45054 6.202979,2.701705 8.924569,0.856443 0.30849,-0.209139 0.38903,-0.628856 0.17989,-0.937434 -0.20914,-0.308579 -0.62876,-0.389211 -0.93743,-0.179892 -0.94194,0.638755 -2.04405,0.97622 -3.187118,0.97622 -2.93523,0 -5.321966,-2.209814 -5.647103,-5.023017 h 0.08342 c 0.814776,0 1.477649,-0.662872 1.477649,-1.477649 v -2.025423 c 1.427794,0.789669 2.917772,1.262391 4.085942,1.262391 1.16817,0 2.65824,-0.472722 4.08595,-1.262391 v 2.025423 c 0,0.814777 0.66287,1.477649 1.47764,1.477649 h 0.0852 c -0.0777,0.675921 -0.27484,1.324665 -0.58944,1.935613 -0.17063,0.331436 -0.0403,0.738374 0.29103,0.909087 0.33413,0.171972 0.73981,0.03753 0.90908,-0.29103 0.40757,-0.79147 0.66045,-1.663211 0.74504,-2.55358 h 6.68442 c 2.72097,0 4.93465,2.213684 4.93465,4.934646 v 9.829787 h -5.39756 v -5.849673 c 0,-0.372742 -0.30219,-0.674931 -0.67493,-0.674931 -0.37274,0 -0.67493,0.302189 -0.67493,0.674931 v 5.849673 H 87.350905 v -5.849673 c 0,-0.372742 -0.302189,-0.674931 -0.674931,-0.674931 -0.372742,0 -0.674931,0.302189 -0.674931,0.674931 v 5.849673 H 80.603484 V 97.65909 c 0,-0.372742 -0.302189,-0.674931 -0.674931,-0.674931 -0.372742,0 -0.674931,0.302189 -0.674931,0.674931 v 2.76092 c 0,0.37274 0.302189,0.67493 0.674931,0.67493 h 38.597237 c 0.37274,0 0.67493,-0.30219 0.67493,-0.67493 V 89.9152 c 0,-3.465276 -2.81923,-6.284508 -6.28451,-6.284508 z m -2.9157,-15.582808 c 0.73082,0 1.32539,0.594569 1.32539,1.325384 v 0.218768 c 0,1.529394 -1.1338,2.798444 -2.60488,3.012172 l 0.33558,-4.556324 z m -22.871972,1.544152 v -0.218768 c 0,-0.730815 0.594569,-1.325384 1.325385,-1.325384 h 0.944003 l 0.335576,4.556324 C 88.262332,72.39057 87.128538,71.12143 87.128538,69.592036 Z"
           inkscape:connector-curvature="0"
           style="stroke-width:0.08999081"
           clip-path="url(#clipPath1663)" />
      </g>
      <path
         inkscape:connector-curvature="0"
         id="path1643-3"
         d="m 160.70717,122.33625 c -58.58648,0 -58.58648,0 -58.58648,0 l -0.56697,-1.70089"
         style="fill:none;stroke:#000000;stroke-width:1;stroke-linecap:butt;stroke-linejoin:miter;stroke-miterlimit:4;stroke-dasharray:none;stroke-opacity:1" />
    </g>
  </g>
</svg>
